<svg xmlns="http://www.w3.org/2000/svg" xmlns:xlink="http://www.w3.org/1999/xlink" version="1.2" baseProfile="tiny" width="1080" height="644" viewBox="0 0 1080 644"><rect width="1080" height="644" fill="#000" /><g fill="none" stroke="#f4f1e9" stroke-width="4.2" stroke-linecap="round" stroke-linejoin="round"><defs><g id="brows-curiosity-00"><g id="brows-curiosity-00-left"><path d="M-61-2Q-44-8-27-3" fill="none" stroke="#f4f1e9" stroke-width="4.2" /></g><g id="brows-curiosity-00-right"><path d="M27-3Q43-7 61-2" fill="none" stroke="#f4f1e9" stroke-width="4.2" /></g></g><g id="brows-curiosity-01"><g id="brows-curiosity-01-left"><path d="M-61-6Q-46-17-27-10" fill="none" stroke="#f4f1e9" stroke-width="4.2" /></g><g id="brows-curiosity-01-right"><path d="M27-4Q45-7 61-2" fill="none" stroke="#f4f1e9" stroke-width="4.2" /></g></g><g id="brows-curiosity-02"><g id="brows-curiosity-02-left"><path d="M-61-12Q-45-25-27-16" fill="none" stroke="#f4f1e9" stroke-width="4.2" /></g><g id="brows-curiosity-02-right"><path d="M27-3Q45-3 62-6" fill="none" stroke="#f4f1e9" stroke-width="4.2" /></g></g><g id="brows-curiosity-03"><g id="brows-curiosity-03-left"><path d="M-61-9Q-45-20-27-12" fill="none" stroke="#f4f1e9" stroke-width="4.2" /></g><g id="brows-curiosity-03-right"><path d="M27-4Q43-4 61-5" fill="none" stroke="#f4f1e9" stroke-width="4.2" /></g></g><g id="brows-curiosity-04"><g id="brows-curiosity-04-left"><path d="M-61-6Q-45-12-27-7" fill="none" stroke="#f4f1e9" stroke-width="4.2" /></g><g id="brows-curiosity-04-right"><path d="M27-3Q43-6 61-2" fill="none" stroke="#f4f1e9" stroke-width="4.2" /></g></g><g id="brows-curiosity-05"><g id="brows-curiosity-05-left"><path d="M-61-2Q-44-8-27-3" fill="none" stroke="#f4f1e9" stroke-width="4.2" /></g><g id="brows-curiosity-05-right"><path d="M27-3Q43-7 61-2" fill="none" stroke="#f4f1e9" stroke-width="4.2" /></g></g><g id="brows-stubborn-00"><g id="brows-stubborn-00-left"><path d="M-62-5Q-45-3-27 0" fill="none" stroke="#f4f1e9" stroke-width="4.2" /></g><g id="brows-stubborn-00-right"><path d="M27 0Q45-3 62-5" fill="none" stroke="#f4f1e9" stroke-width="4.2" /></g></g><g id="brows-stubborn-01"><g id="brows-stubborn-01-left"><path d="M-63-9Q-45 0-26 2" fill="none" stroke="#f4f1e9" stroke-width="4.2" /></g><g id="brows-stubborn-01-right"><path d="M27 1Q47-2 62-12" fill="none" stroke="#f4f1e9" stroke-width="4.2" /></g></g><g id="brows-stubborn-02"><g id="brows-stubborn-02-left"><path d="M-62-13Q-43 1-25 3" fill="none" stroke="#f4f1e9" stroke-width="4.2" /></g><g id="brows-stubborn-02-right"><path d="M26 2Q47-3 64-14" fill="none" stroke="#f4f1e9" stroke-width="4.2" /></g></g><g id="brows-stubborn-03"><g id="brows-stubborn-03-left"><path d="M-62-11Q-43 1-25 2" fill="none" stroke="#f4f1e9" stroke-width="4.2" /></g><g id="brows-stubborn-03-right"><path d="M27 2Q47-2 64-13" fill="none" stroke="#f4f1e9" stroke-width="4.2" /></g></g><g id="brows-stubborn-04"><g id="brows-stubborn-04-left"><path d="M-62-8Q-43-1-27 1" fill="none" stroke="#f4f1e9" stroke-width="4.2" /></g><g id="brows-stubborn-04-right"><path d="M27 0Q47-2 62-9" fill="none" stroke="#f4f1e9" stroke-width="4.2" /></g></g><g id="brows-stubborn-05"><g id="brows-stubborn-05-left"><path d="M-62-5Q-45-3-27 0" fill="none" stroke="#f4f1e9" stroke-width="4.2" /></g><g id="brows-stubborn-05-right"><path d="M27 0Q45-3 62-5" fill="none" stroke="#f4f1e9" stroke-width="4.2" /></g></g><g id="brows-concern-00"><g id="brows-concern-00-left"><path d="M-62-1Q-44-2-27-9" fill="none" stroke="#f4f1e9" stroke-width="4.2" /></g><g id="brows-concern-00-right"><path d="M27-9Q44-2 62-1" fill="none" stroke="#f4f1e9" stroke-width="4.2" /></g></g><g id="brows-concern-01"><g id="brows-concern-01-left"><path d="M-63 1Q-43 1-27-14" fill="none" stroke="#f4f1e9" stroke-width="4.2" /></g><g id="brows-concern-01-right"><path d="M27-13Q44-1 62 0" fill="none" stroke="#f4f1e9" stroke-width="4.2" /></g></g><g id="brows-concern-02"><g id="brows-concern-02-left"><path d="M-63 2Q-42 2-26-18" fill="none" stroke="#f4f1e9" stroke-width="4.2" /></g><g id="brows-concern-02-right"><path d="M27-16Q45 0 64 1" fill="none" stroke="#f4f1e9" stroke-width="4.2" /></g></g><g id="brows-concern-03"><g id="brows-concern-03-left"><path d="M-63 1Q-43 3-27-16" fill="none" stroke="#f4f1e9" stroke-width="4.2" /></g><g id="brows-concern-03-right"><path d="M27-17Q45-1 64 0" fill="none" stroke="#f4f1e9" stroke-width="4.2" /></g></g><g id="brows-concern-04"><g id="brows-concern-04-left"><path d="M-63 0Q-43 1-27-13" fill="none" stroke="#f4f1e9" stroke-width="4.2" /></g><g id="brows-concern-04-right"><path d="M27-12Q44-2 62-1" fill="none" stroke="#f4f1e9" stroke-width="4.2" /></g></g><g id="brows-concern-05"><g id="brows-concern-05-left"><path d="M-62-1Q-44-2-27-9" fill="none" stroke="#f4f1e9" stroke-width="4.2" /></g><g id="brows-concern-05-right"><path d="M27-9Q44-2 62-1" fill="none" stroke="#f4f1e9" stroke-width="4.2" /></g></g><g id="brows-soft-delight-00"><g id="brows-soft-delight-00-left"><path d="M-60-3Q-45-10-29-4" fill="none" stroke="#f4f1e9" stroke-width="3.6" /></g><g id="brows-soft-delight-00-right"><path d="M29-4Q44-10 60-3" fill="none" stroke="#f4f1e9" stroke-width="3.6" /></g></g><g id="brows-soft-delight-01"><g id="brows-soft-delight-01-left"><path d="M-60-6Q-44-16-29-8" fill="none" stroke="#f4f1e9" stroke-width="3.6" /></g><g id="brows-soft-delight-01-right"><path d="M29-7Q46-15 61-6" fill="none" stroke="#f4f1e9" stroke-width="3.6" /></g></g><g id="brows-soft-delight-02"><g id="brows-soft-delight-02-left"><path d="M-60-8Q-43-19-28-10" fill="none" stroke="#f4f1e9" stroke-width="3.6" /></g><g id="brows-soft-delight-02-right"><path d="M29-10Q46-19 61-8" fill="none" stroke="#f4f1e9" stroke-width="3.6" /></g></g><g id="brows-soft-delight-03"><g id="brows-soft-delight-03-left"><path d="M-59-7Q-43-16-28-8" fill="none" stroke="#f4f1e9" stroke-width="3.6" /></g><g id="brows-soft-delight-03-right"><path d="M29-9Q46-18 61-7" fill="none" stroke="#f4f1e9" stroke-width="3.6" /></g></g><g id="brows-soft-delight-04"><g id="brows-soft-delight-04-left"><path d="M-60-5Q-44-13-29-6" fill="none" stroke="#f4f1e9" stroke-width="3.6" /></g><g id="brows-soft-delight-04-right"><path d="M29-6Q45-13 60-4" fill="none" stroke="#f4f1e9" stroke-width="3.6" /></g></g><g id="brows-soft-delight-05"><g id="brows-soft-delight-05-left"><path d="M-60-3Q-45-10-29-4" fill="none" stroke="#f4f1e9" stroke-width="3.6" /></g><g id="brows-soft-delight-05-right"><path d="M29-4Q44-10 60-3" fill="none" stroke="#f4f1e9" stroke-width="3.6" /></g></g></defs><text x="20" y="30" fill="#f4f1e9" stroke="none" font-family="sans-serif" font-size="18">BROWS / independent motion frames</text><text x="20" y="68" fill="#b0ada5" stroke="none" font-family="sans-serif" font-size="13">curiosity</text><use xlink:href="#brows-curiosity-00" transform="translate(90 117)" /><text x="90" y="171" fill="#898781" stroke="none" font-family="sans-serif" font-size="11" text-anchor="middle">00 / 400 ms</text><use xlink:href="#brows-curiosity-01" transform="translate(270 117)" /><text x="270" y="171" fill="#898781" stroke="none" font-family="sans-serif" font-size="11" text-anchor="middle">01 / 120 ms</text><use xlink:href="#brows-curiosity-02" transform="translate(450 117)" /><text x="450" y="171" fill="#898781" stroke="none" font-family="sans-serif" font-size="11" text-anchor="middle">02 / 450 ms</text><use xlink:href="#brows-curiosity-03" transform="translate(630 117)" /><text x="630" y="171" fill="#898781" stroke="none" font-family="sans-serif" font-size="11" text-anchor="middle">03 / 350 ms</text><use xlink:href="#brows-curiosity-04" transform="translate(810 117)" /><text x="810" y="171" fill="#898781" stroke="none" font-family="sans-serif" font-size="11" text-anchor="middle">04 / 180 ms</text><use xlink:href="#brows-curiosity-05" transform="translate(990 117)" /><text x="990" y="171" fill="#898781" stroke="none" font-family="sans-serif" font-size="11" text-anchor="middle">05 / 500 ms</text><text x="20" y="210" fill="#b0ada5" stroke="none" font-family="sans-serif" font-size="13">stubborn</text><use xlink:href="#brows-stubborn-00" transform="translate(90 259)" /><text x="90" y="313" fill="#898781" stroke="none" font-family="sans-serif" font-size="11" text-anchor="middle">00 / 140 ms</text><use xlink:href="#brows-stubborn-01" transform="translate(270 259)" /><text x="270" y="313" fill="#898781" stroke="none" font-family="sans-serif" font-size="11" text-anchor="middle">01 / 140 ms</text><use xlink:href="#brows-stubborn-02" transform="translate(450 259)" /><text x="450" y="313" fill="#898781" stroke="none" font-family="sans-serif" font-size="11" text-anchor="middle">02 / 140 ms</text><use xlink:href="#brows-stubborn-03" transform="translate(630 259)" /><text x="630" y="313" fill="#898781" stroke="none" font-family="sans-serif" font-size="11" text-anchor="middle">03 / 140 ms</text><use xlink:href="#brows-stubborn-04" transform="translate(810 259)" /><text x="810" y="313" fill="#898781" stroke="none" font-family="sans-serif" font-size="11" text-anchor="middle">04 / 140 ms</text><use xlink:href="#brows-stubborn-05" transform="translate(990 259)" /><text x="990" y="313" fill="#898781" stroke="none" font-family="sans-serif" font-size="11" text-anchor="middle">05 / 140 ms</text><text x="20" y="352" fill="#b0ada5" stroke="none" font-family="sans-serif" font-size="13">concern</text><use xlink:href="#brows-concern-00" transform="translate(90 401)" /><text x="90" y="455" fill="#898781" stroke="none" font-family="sans-serif" font-size="11" text-anchor="middle">00 / 140 ms</text><use xlink:href="#brows-concern-01" transform="translate(270 401)" /><text x="270" y="455" fill="#898781" stroke="none" font-family="sans-serif" font-size="11" text-anchor="middle">01 / 140 ms</text><use xlink:href="#brows-concern-02" transform="translate(450 401)" /><text x="450" y="455" fill="#898781" stroke="none" font-family="sans-serif" font-size="11" text-anchor="middle">02 / 140 ms</text><use xlink:href="#brows-concern-03" transform="translate(630 401)" /><text x="630" y="455" fill="#898781" stroke="none" font-family="sans-serif" font-size="11" text-anchor="middle">03 / 140 ms</text><use xlink:href="#brows-concern-04" transform="translate(810 401)" /><text x="810" y="455" fill="#898781" stroke="none" font-family="sans-serif" font-size="11" text-anchor="middle">04 / 140 ms</text><use xlink:href="#brows-concern-05" transform="translate(990 401)" /><text x="990" y="455" fill="#898781" stroke="none" font-family="sans-serif" font-size="11" text-anchor="middle">05 / 140 ms</text><text x="20" y="494" fill="#b0ada5" stroke="none" font-family="sans-serif" font-size="13">soft-delight</text><use xlink:href="#brows-soft-delight-00" transform="translate(90 543)" /><text x="90" y="597" fill="#898781" stroke="none" font-family="sans-serif" font-size="11" text-anchor="middle">00 / 250 ms</text><use xlink:href="#brows-soft-delight-01" transform="translate(270 543)" /><text x="270" y="597" fill="#898781" stroke="none" font-family="sans-serif" font-size="11" text-anchor="middle">01 / 140 ms</text><use xlink:href="#brows-soft-delight-02" transform="translate(450 543)" /><text x="450" y="597" fill="#898781" stroke="none" font-family="sans-serif" font-size="11" text-anchor="middle">02 / 220 ms</text><use xlink:href="#brows-soft-delight-03" transform="translate(630 543)" /><text x="630" y="597" fill="#898781" stroke="none" font-family="sans-serif" font-size="11" text-anchor="middle">03 / 200 ms</text><use xlink:href="#brows-soft-delight-04" transform="translate(810 543)" /><text x="810" y="597" fill="#898781" stroke="none" font-family="sans-serif" font-size="11" text-anchor="middle">04 / 180 ms</text><use xlink:href="#brows-soft-delight-05" transform="translate(990 543)" /><text x="990" y="597" fill="#898781" stroke="none" font-family="sans-serif" font-size="11" text-anchor="middle">05 / 350 ms</text></g></svg>