<svg xmlns="http://www.w3.org/2000/svg" xmlns:xlink="http://www.w3.org/1999/xlink" version="1.2" baseProfile="tiny" width="1080" height="1070" viewBox="0 0 1080 1070"><rect width="1080" height="1070" fill="#000" /><g fill="none" stroke="#f4f1e9" stroke-width="4.2" stroke-linecap="round" stroke-linejoin="round"><defs><g id="mouth-quiet-smile-00"><path d="M-17-1C-9 10 3 12 17-2" fill="none" stroke="#f4f1e9" stroke-width="4.2" /></g><g id="mouth-quiet-smile-01"><path d="M-17-1C-8 11 4 12 18-1" fill="none" stroke="#f4f1e9" stroke-width="4.2" /></g><g id="mouth-quiet-smile-02"><path d="M-18-2C-8 12 5 14 19-3" fill="none" stroke="#f4f1e9" stroke-width="4.2" /></g><g id="mouth-quiet-smile-03"><path d="M-18-1C-7 13 5 12 18-3" fill="none" stroke="#f4f1e9" stroke-width="4.2" /></g><g id="mouth-quiet-smile-04"><path d="M-17 0C-8 11 4 11 17-2" fill="none" stroke="#f4f1e9" stroke-width="4.2" /></g><g id="mouth-quiet-smile-05"><path d="M-17-1C-9 10 3 12 17-2" fill="none" stroke="#f4f1e9" stroke-width="4.2" /></g><g id="mouth-speech-neutral-00"><path d="M-17 1Q-3 4 16 0" fill="none" stroke="#f4f1e9" stroke-width="4.2" /></g><g id="mouth-speech-neutral-01"><path d="M-17-2Q0 1 18-3C16 12-13 14-17-2Z" fill="#f4f1e9" stroke="none" stroke-width="4.2" /><path d="M-11 3Q1 6 12 2L10 5Q0 9-10 6Z" fill="#000" stroke="none" stroke-width="4.2" /></g><g id="mouth-speech-neutral-02"><path d="M-8-9C3-14 14-6 13 6C13 20-5 24-12 12C-17 4-14-5-8-9Z" fill="#f4f1e9" stroke="none" stroke-width="4.2" /></g><g id="mouth-speech-neutral-03"><path d="M-4-10C7-12 12-2 10 8C8 20-6 20-11 10C-15 0-12-9-4-10Z" fill="#f4f1e9" stroke="none" stroke-width="4.2" /></g><g id="mouth-speech-neutral-04"><path d="M-17-1Q-1 6 16-1" fill="none" stroke="#f4f1e9" stroke-width="4.2" /><path d="M-7 6Q0 10 8 5" fill="none" stroke="#f4f1e9" stroke-width="3.6" /></g><g id="mouth-speech-neutral-05"><path d="M-12-3C-4-8 8-8 14-2C20 11-5 18-13 9Q-18 2-12-3Z" fill="#f4f1e9" stroke="none" stroke-width="4.2" /></g><g id="mouth-speech-delighted-00"><path d="M-21-3C-13 17 9 19 23-5" fill="none" stroke="#f4f1e9" stroke-width="4.2" /></g><g id="mouth-speech-delighted-01"><path d="M-23-4Q-1 1 24-5C23 23-17 25-23-4Z" fill="#f4f1e9" stroke="none" stroke-width="4.2" /><path d="M-12 10Q1 4 13 10Q3 15-7 13Z" fill="#000" stroke="none" stroke-width="4.2" /></g><g id="mouth-speech-delighted-02"><path d="M-24-6Q0 1 25-6C28 30-20 33-24-6Z" fill="#f4f1e9" stroke="none" stroke-width="4.2" /><path d="M-13 13Q2 6 15 13Q6 20-7 17Z" fill="#000" stroke="none" stroke-width="4.2" /></g><g id="mouth-speech-delighted-03"><path d="M-18-7C-5-3 11-5 23-10C29 22-12 30-18-7Z" fill="#f4f1e9" stroke="none" stroke-width="4.2" /><path d="M-5 10Q4 4 15 9Q8 16 0 14Z" fill="#000" stroke="none" stroke-width="4.2" /></g><g id="mouth-speech-delighted-04"><path d="M-21-3Q2 2 22-6C21 20-13 22-21-3Z" fill="#f4f1e9" stroke="none" stroke-width="4.2" /><path d="M-10 9Q3 4 12 8Q4 14-5 12Z" fill="#000" stroke="none" stroke-width="4.2" /></g><g id="mouth-speech-delighted-05"><path d="M-21-3C-13 17 9 19 23-5" fill="none" stroke="#f4f1e9" stroke-width="4.2" /></g><g id="mouth-speech-grumpy-00"><path d="M-15 4Q-2 0 15 3" fill="none" stroke="#f4f1e9" stroke-width="4.2" /></g><g id="mouth-speech-grumpy-01"><path d="M-16 0Q0-5 17-1L15 10Q1 8-15 11Z" fill="#f4f1e9" stroke="none" stroke-width="4.2" /><path d="M-10 3L11 2L11 5L-10 6Z" fill="#000" stroke="none" stroke-width="4.2" /></g><g id="mouth-speech-grumpy-02"><path d="M-10-7Q2-12 13-5L12 16Q0 12-12 17Z" fill="#f4f1e9" stroke="none" stroke-width="4.2" /></g><g id="mouth-speech-grumpy-03"><path d="M-5-7Q9-9 11 2L8 15Q-7 18-10 7Q-12-3-5-7Z" fill="#f4f1e9" stroke="none" stroke-width="4.2" /></g><g id="mouth-speech-grumpy-04"><path d="M-17 4Q-1 1 16 2" fill="none" stroke="#f4f1e9" stroke-width="4.2" /></g><g id="mouth-speech-grumpy-05"><path d="M-15 4Q-2 0 15 3" fill="none" stroke="#f4f1e9" stroke-width="4.2" /></g><g id="mouth-speech-sad-00"><path d="M-17 9C-7-5 6-7 18 8" fill="none" stroke="#f4f1e9" stroke-width="4.2" /></g><g id="mouth-speech-sad-01"><path d="M-15 8C-5-6 8-6 17 7Q2 3-15 8Z" fill="#f4f1e9" stroke="none" stroke-width="4.2" /></g><g id="mouth-speech-sad-02"><path d="M-8-7C0-14 12-8 14 1L13 17Q0 10-13 19L-14 3Q-14-3-8-7Z" fill="#f4f1e9" stroke="none" stroke-width="4.2" /></g><g id="mouth-speech-sad-03"><path d="M-4-7C6-13 12-5 11 4L9 17Q0 11-10 18L-11 4Q-12-5-4-7Z" fill="#f4f1e9" stroke="none" stroke-width="4.2" /></g><g id="mouth-speech-sad-04"><path d="M-17 9C-6-3 7-4 18 9" fill="none" stroke="#f4f1e9" stroke-width="4.2" /></g><g id="mouth-speech-sad-05"><path d="M-17 9C-7-5 6-7 18 8" fill="none" stroke="#f4f1e9" stroke-width="4.2" /></g><g id="mouth-thinking-00"><path d="M-14 5Q0 9 15 0" fill="none" stroke="#f4f1e9" stroke-width="4.2" /></g><g id="mouth-thinking-01"><path d="M-12 6Q2 10 17 0" fill="none" stroke="#f4f1e9" stroke-width="4.2" /></g><g id="mouth-thinking-02"><path d="M-8 6Q6 11 19 1" fill="none" stroke="#f4f1e9" stroke-width="4.2" /></g><g id="mouth-thinking-03"><path d="M5 0Q13-8 20 0Q23 10 13 12Q4 11 5 0Z" fill="#f4f1e9" stroke="none" stroke-width="4.2" /></g><g id="mouth-thinking-04"><path d="M-8 6Q6 11 19 1" fill="none" stroke="#f4f1e9" stroke-width="4.2" /></g><g id="mouth-thinking-05"><path d="M-14 5Q0 9 15 0" fill="none" stroke="#f4f1e9" stroke-width="4.2" /></g><g id="mouth-yawn-00"><path d="M-12 2Q0 9 12 1" fill="none" stroke="#f4f1e9" stroke-width="4.2" /></g><g id="mouth-yawn-01"><path d="M-4-3Q5-7 8 1Q10 11 0 13Q-10 11-8 3Q-8-1-4-3Z" fill="#f4f1e9" stroke="none" stroke-width="4.2" /></g><g id="mouth-yawn-02"><path d="M-7-10C5-17 16-7 14 7C13 24-9 25-14 11Q-18-4-7-10Z" fill="#f4f1e9" stroke="none" stroke-width="4.2" /></g><g id="mouth-yawn-03"><path d="M-8-16C7-22 18-9 16 11C14 33-12 32-17 13C-21-3-17-13-8-16Z" fill="#f4f1e9" stroke="none" stroke-width="4.2" /></g><g id="mouth-yawn-04"><path d="M-5-6Q6-12 11 1C13 18-8 23-12 9Q-15-2-5-6Z" fill="#f4f1e9" stroke="none" stroke-width="4.2" /></g><g id="mouth-yawn-05"><path d="M-12 2Q0 9 12 1" fill="none" stroke="#f4f1e9" stroke-width="4.2" /></g></defs><text x="20" y="30" fill="#f4f1e9" stroke="none" font-family="sans-serif" font-size="18">MOUTH / independent motion frames</text><text x="20" y="68" fill="#b0ada5" stroke="none" font-family="sans-serif" font-size="13">quiet-smile</text><use xlink:href="#mouth-quiet-smile-00" transform="translate(90 117)" /><text x="90" y="171" fill="#898781" stroke="none" font-family="sans-serif" font-size="11" text-anchor="middle">00 / 1000 ms</text><use xlink:href="#mouth-quiet-smile-01" transform="translate(270 117)" /><text x="270" y="171" fill="#898781" stroke="none" font-family="sans-serif" font-size="11" text-anchor="middle">01 / 180 ms</text><use xlink:href="#mouth-quiet-smile-02" transform="translate(450 117)" /><text x="450" y="171" fill="#898781" stroke="none" font-family="sans-serif" font-size="11" text-anchor="middle">02 / 240 ms</text><use xlink:href="#mouth-quiet-smile-03" transform="translate(630 117)" /><text x="630" y="171" fill="#898781" stroke="none" font-family="sans-serif" font-size="11" text-anchor="middle">03 / 320 ms</text><use xlink:href="#mouth-quiet-smile-04" transform="translate(810 117)" /><text x="810" y="171" fill="#898781" stroke="none" font-family="sans-serif" font-size="11" text-anchor="middle">04 / 220 ms</text><use xlink:href="#mouth-quiet-smile-05" transform="translate(990 117)" /><text x="990" y="171" fill="#898781" stroke="none" font-family="sans-serif" font-size="11" text-anchor="middle">05 / 1000 ms</text><text x="20" y="210" fill="#b0ada5" stroke="none" font-family="sans-serif" font-size="13">speech-neutral</text><use xlink:href="#mouth-speech-neutral-00" transform="translate(90 259)" /><text x="90" y="313" fill="#898781" stroke="none" font-family="sans-serif" font-size="11" text-anchor="middle">00 / 90 ms</text><use xlink:href="#mouth-speech-neutral-01" transform="translate(270 259)" /><text x="270" y="313" fill="#898781" stroke="none" font-family="sans-serif" font-size="11" text-anchor="middle">01 / 100 ms</text><use xlink:href="#mouth-speech-neutral-02" transform="translate(450 259)" /><text x="450" y="313" fill="#898781" stroke="none" font-family="sans-serif" font-size="11" text-anchor="middle">02 / 130 ms</text><use xlink:href="#mouth-speech-neutral-03" transform="translate(630 259)" /><text x="630" y="313" fill="#898781" stroke="none" font-family="sans-serif" font-size="11" text-anchor="middle">03 / 110 ms</text><use xlink:href="#mouth-speech-neutral-04" transform="translate(810 259)" /><text x="810" y="313" fill="#898781" stroke="none" font-family="sans-serif" font-size="11" text-anchor="middle">04 / 80 ms</text><use xlink:href="#mouth-speech-neutral-05" transform="translate(990 259)" /><text x="990" y="313" fill="#898781" stroke="none" font-family="sans-serif" font-size="11" text-anchor="middle">05 / 120 ms</text><text x="20" y="352" fill="#b0ada5" stroke="none" font-family="sans-serif" font-size="13">speech-delighted</text><use xlink:href="#mouth-speech-delighted-00" transform="translate(90 401)" /><text x="90" y="455" fill="#898781" stroke="none" font-family="sans-serif" font-size="11" text-anchor="middle">00 / 100 ms</text><use xlink:href="#mouth-speech-delighted-01" transform="translate(270 401)" /><text x="270" y="455" fill="#898781" stroke="none" font-family="sans-serif" font-size="11" text-anchor="middle">01 / 120 ms</text><use xlink:href="#mouth-speech-delighted-02" transform="translate(450 401)" /><text x="450" y="455" fill="#898781" stroke="none" font-family="sans-serif" font-size="11" text-anchor="middle">02 / 170 ms</text><use xlink:href="#mouth-speech-delighted-03" transform="translate(630 401)" /><text x="630" y="455" fill="#898781" stroke="none" font-family="sans-serif" font-size="11" text-anchor="middle">03 / 120 ms</text><use xlink:href="#mouth-speech-delighted-04" transform="translate(810 401)" /><text x="810" y="455" fill="#898781" stroke="none" font-family="sans-serif" font-size="11" text-anchor="middle">04 / 140 ms</text><use xlink:href="#mouth-speech-delighted-05" transform="translate(990 401)" /><text x="990" y="455" fill="#898781" stroke="none" font-family="sans-serif" font-size="11" text-anchor="middle">05 / 220 ms</text><text x="20" y="494" fill="#b0ada5" stroke="none" font-family="sans-serif" font-size="13">speech-grumpy</text><use xlink:href="#mouth-speech-grumpy-00" transform="translate(90 543)" /><text x="90" y="597" fill="#898781" stroke="none" font-family="sans-serif" font-size="11" text-anchor="middle">00 / 200 ms</text><use xlink:href="#mouth-speech-grumpy-01" transform="translate(270 543)" /><text x="270" y="597" fill="#898781" stroke="none" font-family="sans-serif" font-size="11" text-anchor="middle">01 / 100 ms</text><use xlink:href="#mouth-speech-grumpy-02" transform="translate(450 543)" /><text x="450" y="597" fill="#898781" stroke="none" font-family="sans-serif" font-size="11" text-anchor="middle">02 / 130 ms</text><use xlink:href="#mouth-speech-grumpy-03" transform="translate(630 543)" /><text x="630" y="597" fill="#898781" stroke="none" font-family="sans-serif" font-size="11" text-anchor="middle">03 / 110 ms</text><use xlink:href="#mouth-speech-grumpy-04" transform="translate(810 543)" /><text x="810" y="597" fill="#898781" stroke="none" font-family="sans-serif" font-size="11" text-anchor="middle">04 / 100 ms</text><use xlink:href="#mouth-speech-grumpy-05" transform="translate(990 543)" /><text x="990" y="597" fill="#898781" stroke="none" font-family="sans-serif" font-size="11" text-anchor="middle">05 / 280 ms</text><text x="20" y="636" fill="#b0ada5" stroke="none" font-family="sans-serif" font-size="13">speech-sad</text><use xlink:href="#mouth-speech-sad-00" transform="translate(90 685)" /><text x="90" y="739" fill="#898781" stroke="none" font-family="sans-serif" font-size="11" text-anchor="middle">00 / 260 ms</text><use xlink:href="#mouth-speech-sad-01" transform="translate(270 685)" /><text x="270" y="739" fill="#898781" stroke="none" font-family="sans-serif" font-size="11" text-anchor="middle">01 / 110 ms</text><use xlink:href="#mouth-speech-sad-02" transform="translate(450 685)" /><text x="450" y="739" fill="#898781" stroke="none" font-family="sans-serif" font-size="11" text-anchor="middle">02 / 150 ms</text><use xlink:href="#mouth-speech-sad-03" transform="translate(630 685)" /><text x="630" y="739" fill="#898781" stroke="none" font-family="sans-serif" font-size="11" text-anchor="middle">03 / 140 ms</text><use xlink:href="#mouth-speech-sad-04" transform="translate(810 685)" /><text x="810" y="739" fill="#898781" stroke="none" font-family="sans-serif" font-size="11" text-anchor="middle">04 / 180 ms</text><use xlink:href="#mouth-speech-sad-05" transform="translate(990 685)" /><text x="990" y="739" fill="#898781" stroke="none" font-family="sans-serif" font-size="11" text-anchor="middle">05 / 300 ms</text><text x="20" y="778" fill="#b0ada5" stroke="none" font-family="sans-serif" font-size="13">thinking</text><use xlink:href="#mouth-thinking-00" transform="translate(90 827)" /><text x="90" y="881" fill="#898781" stroke="none" font-family="sans-serif" font-size="11" text-anchor="middle">00 / 700 ms</text><use xlink:href="#mouth-thinking-01" transform="translate(270 827)" /><text x="270" y="881" fill="#898781" stroke="none" font-family="sans-serif" font-size="11" text-anchor="middle">01 / 150 ms</text><use xlink:href="#mouth-thinking-02" transform="translate(450 827)" /><text x="450" y="881" fill="#898781" stroke="none" font-family="sans-serif" font-size="11" text-anchor="middle">02 / 500 ms</text><use xlink:href="#mouth-thinking-03" transform="translate(630 827)" /><text x="630" y="881" fill="#898781" stroke="none" font-family="sans-serif" font-size="11" text-anchor="middle">03 / 220 ms</text><use xlink:href="#mouth-thinking-04" transform="translate(810 827)" /><text x="810" y="881" fill="#898781" stroke="none" font-family="sans-serif" font-size="11" text-anchor="middle">04 / 200 ms</text><use xlink:href="#mouth-thinking-05" transform="translate(990 827)" /><text x="990" y="881" fill="#898781" stroke="none" font-family="sans-serif" font-size="11" text-anchor="middle">05 / 800 ms</text><text x="20" y="920" fill="#b0ada5" stroke="none" font-family="sans-serif" font-size="13">yawn</text><use xlink:href="#mouth-yawn-00" transform="translate(90 969)" /><text x="90" y="1023" fill="#898781" stroke="none" font-family="sans-serif" font-size="11" text-anchor="middle">00 / 600 ms</text><use xlink:href="#mouth-yawn-01" transform="translate(270 969)" /><text x="270" y="1023" fill="#898781" stroke="none" font-family="sans-serif" font-size="11" text-anchor="middle">01 / 180 ms</text><use xlink:href="#mouth-yawn-02" transform="translate(450 969)" /><text x="450" y="1023" fill="#898781" stroke="none" font-family="sans-serif" font-size="11" text-anchor="middle">02 / 300 ms</text><use xlink:href="#mouth-yawn-03" transform="translate(630 969)" /><text x="630" y="1023" fill="#898781" stroke="none" font-family="sans-serif" font-size="11" text-anchor="middle">03 / 750 ms</text><use xlink:href="#mouth-yawn-04" transform="translate(810 969)" /><text x="810" y="1023" fill="#898781" stroke="none" font-family="sans-serif" font-size="11" text-anchor="middle">04 / 300 ms</text><use xlink:href="#mouth-yawn-05" transform="translate(990 969)" /><text x="990" y="1023" fill="#898781" stroke="none" font-family="sans-serif" font-size="11" text-anchor="middle">05 / 900 ms</text></g></svg>